<?xml version="1.0" encoding="utf-8"?>
<!-- Generator: Adobe Illustrator 21.0.2, SVG Export Plug-In . SVG Version: 6.00 Build 0)  -->
<svg version="1.1" id="Layer_1" xmlns="http://www.w3.org/2000/svg" xmlns:xlink="http://www.w3.org/1999/xlink" x="0px" y="0px"
	 viewBox="0 0 350 80" style="enable-background:new 0 0 350 80;" xml:space="preserve">
<style type="text/css">
	.st0{fill:#F7931E;}
	.st1{fill:#FBB03B;}
	.st2{fill:#F9912B;}
	.st3{fill:#FC9630;}
	.st4{fill:#C0D42E;}
	.st5{fill:#E0E0E0;}
</style>
<g>
	<path class="st0" d="M5.7,7.4C5.7,7.4,5.4-45.3,5.7,7.4c0.3,52.7-0.3,52.7,0,52.7c0.3,0,4.9,14.3,19.4,14.3V22.5
		C25.1,22.5,23.2,6.3,5.7,7.4z"/>
	<path class="st1" d="M100.1,73.6C100.1,73.6,100.4,126.3,100.1,73.6s0.3-52.7,0-52.7S95.2,6.6,80.7,6.6v51.9
		C80.7,58.5,82.6,74.7,100.1,73.6z"/>
	<rect x="31" y="34.9" class="st2" width="19.7" height="39"/>
	<path class="st3" d="M75.5,7.6v52.2c0,0-3.7,15.4-19.8,14.6V24.1C55.6,24.1,58.3,7.7,75.5,7.6z"/>
	<path class="st4" d="M3,59.5"/>
</g>
<g>
	<path class="st5" d="M123.2,35.1l3.2,15.7c0.7,3.7,1.4,7.4,1.9,11.2h0.1c0.6-3.8,1.6-7.6,2.5-11.1l3.9-15.8h6.3l3.8,15.3
		c0.9,4,1.8,7.8,2.4,11.6h0.1c0.5-3.8,1.2-7.5,2-11.6l3.4-15.3h7.6L151,69.6h-7.1l-3.6-14c-0.9-3.6-1.6-6.9-2.3-11.1h-0.1
		c-0.6,4.3-1.4,7.7-2.3,11.1l-3.9,14h-7.2l-9-34.6H123.2z"/>
	<path class="st5" d="M193.7,52c0,12.7-7.9,18.4-15.7,18.4c-8.6,0-15.3-6.7-15.3-17.8c0-11.4,6.6-18.3,15.8-18.3
		C187.6,34.3,193.7,41.5,193.7,52z M170.7,52.4c0,6.7,2.9,11.7,7.6,11.7c4.4,0,7.5-4.9,7.5-11.8c0-5.4-2.1-11.6-7.4-11.6
		C172.9,40.7,170.7,46.6,170.7,52.4z"/>
	<path class="st5" d="M229,52c0,12.7-7.9,18.4-15.7,18.4c-8.6,0-15.3-6.7-15.3-17.8c0-11.4,6.6-18.3,15.8-18.3
		C223,34.3,229,41.5,229,52z M206.1,52.4c0,6.7,2.9,11.7,7.6,11.7c4.4,0,7.5-4.9,7.5-11.8c0-5.4-2.1-11.6-7.4-11.6
		C208.2,40.7,206.1,46.6,206.1,52.4z"/>
	<path class="st5" d="M243.6,25.4c0,2.6-1.7,4.7-4.4,4.7c-2.6,0-4.3-2.1-4.3-4.7c0-2.7,1.8-4.8,4.3-4.8
		C241.9,20.7,243.5,22.7,243.6,25.4z M235.4,69.6V35.1h7.8v34.6H235.4z"/>
	<path class="st5" d="M251.4,45.4c0-4-0.1-7.3-0.3-10.3h6.8l0.4,5.2h0.2c1.3-2.7,4.6-6,9.7-6c5.3,0,10.8,3.9,10.8,14.8v20.5h-7.7
		V50.1c0-5-1.6-8.7-5.8-8.7c-3.1,0-5.2,2.5-6,5.1c-0.3,0.8-0.3,1.8-0.3,2.8v20.3h-7.8V45.4z"/>
	<path class="st5" d="M285.8,69.6v-5.3l4.8-5c9.6-10.1,14.1-15.6,14.2-21.7c0-4.1-1.9-7.7-7.3-7.7c-3.6,0-6.6,2.1-8.7,3.8l-2.3-6.2
		c2.9-2.7,7.4-4.8,12.5-4.8c9,0,13.4,6.5,13.4,14c0,8.1-5.1,14.6-12.2,22.1l-3.6,3.5v0.1h16.7v7.2H285.8z"/>
	<path class="st5" d="M331.5,31.4h-0.1l-7.5,4.3l-1.3-6.6l9.9-5.5h6.5v46.1h-7.5V31.4z"/>
</g>
</svg>
